# Blender v2.80 (sub 75) OBJ File: 'Test.blend'
# www.blender.org
mtllib Test.mtl
o Cube
v -0.631867 0.185307 -2.480127
v -0.631867 -0.185307 -2.480127
v -0.631867 0.185307 2.480127
v -0.631867 -0.185307 2.480127
v -1.191288 0.017873 -2.480127
v -1.191288 -0.017873 -2.480127
v -1.191288 0.017873 2.480127
v -1.191288 -0.017873 2.480127
v -0.631867 0.185307 21.507816
v -0.631867 -0.185307 21.507816
v -1.191288 0.017873 21.507816
v -1.191288 -0.017873 21.507816
v -0.000000 0.000000 24.729046
v -0.631867 0.000000 -2.480127
v -1.191288 0.000000 2.480127
v -1.191288 0.000000 -2.480127
v -1.191288 0.000000 21.507816
v 0.631867 0.185307 -2.480127
v 0.631867 -0.185307 -2.480127
v 0.631867 0.185307 2.480127
v 0.631867 -0.185307 2.480127
v 0.000000 -0.185307 -2.480127
v 0.000000 0.185307 2.480127
v 0.000000 -0.185307 2.480127
v 0.000000 0.185307 -2.480127
v 1.191288 0.017873 -2.480127
v 1.191288 -0.017873 -2.480127
v 1.191288 0.017873 2.480127
v 1.191288 -0.017873 2.480127
v 0.631867 0.185307 21.507816
v 0.631867 -0.185307 21.507816
v 0.000000 0.185307 21.507816
v 0.000000 -0.185307 21.507816
v 1.191288 0.017873 21.507816
v 1.191288 -0.017873 21.507816
v 0.631867 0.000000 -2.480127
v 0.000000 0.000000 -2.480127
v 1.191288 0.000000 2.480127
v 1.191288 0.000000 -2.480127
v 1.191288 0.000000 21.507816
vt 0.500000 0.000000
vt 0.625000 0.000000
vt 0.625000 0.250000
vt 0.500000 0.250000
vt 0.625000 0.250000
vt 0.625000 0.250000
vt 0.625000 0.250000
vt 0.500000 0.500000
vt 0.375000 0.500000
vt 0.375000 0.500000
vt 0.500000 0.500000
vt 0.750000 0.500000
vt 0.875000 0.500000
vt 0.875000 0.625000
vt 0.750000 0.625000
vt 0.375000 0.750000
vt 0.500000 0.750000
vt 0.500000 1.000000
vt 0.375000 1.000000
vt 0.625000 0.500000
vt 0.625000 0.750000
vt 0.500000 0.750000
vt 0.375000 1.000000
vt 0.375000 0.750000
vt 0.625000 0.000000
vt 0.625000 0.500000
vt 0.625000 0.500000
vt 0.750000 0.500000
vt 0.375000 1.000000
vt 0.500000 1.000000
vt 0.375000 1.000000
vt 0.500000 0.500000
vt 0.375000 1.000000
vt 0.500000 0.250000
vt 0.625000 0.250000
vt 0.500000 0.250000
vt 0.625000 0.500000
vt 0.625000 0.500000
vt 0.875000 0.500000
vt 0.625000 0.625000
vt 0.625000 0.250000
vt 0.625000 0.000000
vt 0.625000 0.250000
vt 0.625000 0.250000
vt 0.625000 0.250000
vt 0.500000 0.500000
vt 0.500000 0.500000
vt 0.375000 0.500000
vt 0.375000 0.500000
vt 0.750000 0.500000
vt 0.875000 0.500000
vt 0.375000 0.750000
vt 0.375000 1.000000
vt 0.500000 0.750000
vt 0.625000 0.750000
vt 0.625000 0.500000
vt 0.375000 0.750000
vt 0.375000 1.000000
vt 0.625000 0.000000
vt 0.750000 0.500000
vt 0.625000 0.500000
vt 0.625000 0.500000
vt 0.375000 1.000000
vt 0.500000 1.000000
vt 0.375000 0.500000
vt 0.375000 1.000000
vt 0.625000 0.500000
vt 0.875000 0.500000
vn 0.0000 1.0000 0.0000
vn -0.2867 0.9580 0.0000
vn -1.0000 0.0000 0.0000
vn 0.0000 0.0000 -1.0000
vn 0.0000 -1.0000 0.0000
vn -0.2867 -0.9580 0.0000
vn 0.0000 -0.9983 0.0574
vn -0.9379 0.0000 0.3469
vn -0.2850 0.9521 0.1107
vn 0.0000 0.9983 0.0574
vn -0.2850 -0.9521 0.1107
vn 0.2867 0.9580 0.0000
vn 1.0000 0.0000 0.0000
vn 0.2867 -0.9580 0.0000
vn 0.9379 0.0000 0.3469
vn 0.2850 0.9521 0.1107
vn 0.2850 -0.9521 0.1107
usemtl Material
s off
f 25/1/1 1/2/1 3/3/1 23/4/1
f 3/3/2 7/5/2 11/6/2 9/7/2
f 15/8/3 8/9/3 12/10/3 17/11/3
f 14/12/4 1/13/4 25/14/4 37/15/4
f 2/16/5 22/17/5 24/18/5 4/19/5
f 15/8/3 7/20/3 5/21/3 16/22/3
f 2/16/6 4/19/6 8/23/6 6/24/6
f 3/3/2 1/2/2 5/25/2 7/5/2
f 14/12/4 2/26/4 6/27/4 16/28/4
f 10/29/7 33/30/7 13/31/7
f 17/11/8 12/10/8 13/32/8
f 8/23/6 4/19/6 10/29/6 12/33/6
f 4/19/5 24/18/5 33/30/5 10/29/5
f 23/4/1 3/3/1 9/7/1 32/34/1
f 9/7/9 11/6/9 13/35/9
f 32/34/10 9/7/10 13/36/10
f 12/33/11 10/29/11 13/31/11
f 11/37/8 17/11/8 13/38/8
f 1/13/4 14/12/4 16/28/4 5/39/4
f 8/9/3 15/8/3 16/22/3 6/24/3
f 2/26/4 14/12/4 37/15/4 22/40/4
f 7/20/3 15/8/3 17/11/3 11/37/3
f 25/1/1 23/4/1 20/41/1 18/42/1
f 20/41/12 30/43/12 34/44/12 28/45/12
f 38/46/13 40/47/13 35/48/13 29/49/13
f 36/50/4 37/15/4 25/14/4 18/51/4
f 19/52/5 21/53/5 24/18/5 22/17/5
f 38/46/13 39/54/13 26/55/13 28/56/13
f 19/52/14 27/57/14 29/58/14 21/53/14
f 20/41/12 28/45/12 26/59/12 18/42/12
f 36/50/4 39/60/4 27/61/4 19/62/4
f 31/63/7 13/64/7 33/30/7
f 40/47/15 13/65/15 35/48/15
f 29/58/14 35/66/14 31/63/14 21/53/14
f 21/53/5 31/63/5 33/30/5 24/18/5
f 23/4/1 32/34/1 30/43/1 20/41/1
f 30/43/16 13/35/16 34/44/16
f 32/34/10 13/35/10 30/43/10
f 35/66/17 13/31/17 31/63/17
f 34/67/15 13/32/15 40/47/15
f 18/51/4 26/68/4 39/60/4 36/50/4
f 29/49/13 27/57/13 39/54/13 38/46/13
f 19/62/4 22/40/4 37/15/4 36/50/4
f 28/56/13 34/67/13 40/47/13 38/46/13
o Cube.001
v -0.772717 -0.243904 -2.476663
v -0.772717 0.243904 -2.476663
v -0.772717 -0.243904 -4.476663
v -0.772717 0.243904 -4.476663
v -1.313529 -0.243904 -2.476663
v -1.313529 0.243904 -2.476663
v -1.313529 -0.243904 -4.476663
v -1.313529 0.243904 -4.476663
v -1.313529 -0.173914 -2.763619
v -1.313529 0.173914 -2.763619
v -1.313529 -0.173914 -4.189707
v -1.313529 0.173914 -4.189707
v -1.313529 -0.173914 -2.763619
v -1.313529 0.173914 -2.763619
v -1.313529 -0.173914 -4.189707
v -1.313529 0.173914 -4.189707
v -2.315768 -0.173914 -2.830904
v -2.315768 0.173914 -2.830904
v -2.783059 -0.173914 -4.122422
v -2.783059 0.173914 -4.122422
v -3.110613 -0.173914 -2.349258
v -3.110613 0.173914 -2.349258
v -3.577904 -0.173914 -3.640776
v -3.577904 0.173914 -3.640776
v -3.110613 -0.173914 -2.349258
v -3.110613 0.173914 -2.349258
v -3.577904 -0.173914 -3.640776
v -3.577904 0.173914 -3.640776
v 0.772717 -0.243904 -2.476663
v 0.772717 0.243904 -2.476663
v 0.772717 -0.243904 -4.476663
v 0.772717 0.243904 -4.476663
v 0.000000 -0.243904 -4.476663
v 0.000000 0.243904 -4.476663
v 0.000000 -0.243904 -2.476663
v 0.000000 0.243904 -2.476663
v 1.313529 -0.243904 -2.476663
v 1.313529 0.243904 -2.476663
v 1.313529 -0.243904 -4.476663
v 1.313529 0.243904 -4.476663
v 1.313529 -0.173914 -2.763619
v 1.313529 0.173914 -2.763619
v 1.313529 -0.173914 -4.189707
v 1.313529 0.173914 -4.189707
v 1.313529 -0.173914 -2.763619
v 1.313529 0.173914 -2.763619
v 1.313529 -0.173914 -4.189707
v 1.313529 0.173914 -4.189707
v 2.315768 -0.173914 -2.830904
v 2.315768 0.173914 -2.830904
v 2.783059 -0.173914 -4.122422
v 2.783059 0.173914 -4.122422
v 3.110613 -0.173914 -2.349258
v 3.110613 0.173914 -2.349258
v 3.577904 -0.173914 -3.640776
v 3.577904 0.173914 -3.640776
v 3.110613 -0.173914 -2.349258
v 3.110613 0.173914 -2.349258
v 3.577904 -0.173914 -3.640776
v 3.577904 0.173914 -3.640776
vt 0.875000 0.750000
vt 0.875000 0.500000
vt 0.875000 0.500000
vt 0.875000 0.750000
vt 0.375000 0.875000
vt 0.625000 0.875000
vt 0.625000 1.000000
vt 0.375000 1.000000
vt 0.750000 0.500000
vt 0.750000 0.750000
vt 0.125000 0.500000
vt 0.250000 0.500000
vt 0.250000 0.750000
vt 0.125000 0.750000
vt 0.375000 0.250000
vt 0.625000 0.250000
vt 0.625000 0.375000
vt 0.375000 0.375000
vt 0.625000 0.250000
vt 0.375000 0.250000
vt 0.375000 0.250000
vt 0.625000 0.250000
vt 0.125000 0.750000
vt 0.125000 0.500000
vt 0.625000 1.000000
vt 0.375000 1.000000
vt 0.875000 0.750000
vt 0.875000 0.500000
vt 0.875000 0.500000
vt 0.875000 0.750000
vt 0.625000 1.000000
vt 0.375000 1.000000
vt 0.125000 0.750000
vt 0.125000 0.500000
vt 0.875000 0.500000
vt 0.875000 0.750000
vt 0.125000 0.750000
vt 0.125000 0.500000
vt 0.375000 0.250000
vt 0.625000 0.250000
vt 0.625000 1.000000
vt 0.375000 1.000000
vt 0.625000 0.250000
vt 0.375000 0.250000
vt 0.375000 0.250000
vt 0.625000 0.250000
vt 0.125000 0.750000
vt 0.125000 0.500000
vt 0.625000 1.000000
vt 0.375000 1.000000
vt 0.875000 0.750000
vt 0.875000 0.500000
vt 0.875000 0.500000
vt 0.875000 0.750000
vt 0.625000 1.000000
vt 0.375000 1.000000
vt 0.125000 0.750000
vt 0.125000 0.500000
vt 0.375000 0.000000
vt 0.625000 0.000000
vt 0.625000 0.250000
vt 0.375000 0.250000
vt 0.125000 0.750000
vt 0.125000 0.500000
vt 0.625000 1.000000
vt 0.375000 1.000000
vt 0.875000 0.750000
vt 0.875000 0.750000
vt 0.875000 0.500000
vt 0.875000 0.500000
vt 0.375000 1.000000
vt 0.625000 1.000000
vt 0.125000 0.500000
vt 0.125000 0.750000
vt 0.375000 0.250000
vt 0.625000 0.250000
vt 0.625000 0.250000
vt 0.625000 0.250000
vt 0.375000 0.250000
vt 0.375000 0.250000
vt 0.125000 0.500000
vt 0.125000 0.750000
vt 0.375000 1.000000
vt 0.625000 1.000000
vt 0.875000 0.750000
vt 0.875000 0.750000
vt 0.875000 0.500000
vt 0.875000 0.500000
vt 0.375000 1.000000
vt 0.625000 1.000000
vt 0.125000 0.500000
vt 0.125000 0.750000
vt 0.875000 0.750000
vt 0.875000 0.500000
vt 0.125000 0.500000
vt 0.125000 0.750000
vt 0.625000 0.250000
vt 0.375000 0.250000
vt 0.375000 1.000000
vt 0.625000 1.000000
vt 0.625000 0.250000
vt 0.625000 0.250000
vt 0.375000 0.250000
vt 0.375000 0.250000
vt 0.125000 0.500000
vt 0.125000 0.750000
vt 0.375000 1.000000
vt 0.625000 1.000000
vt 0.875000 0.750000
vt 0.875000 0.750000
vt 0.875000 0.500000
vt 0.875000 0.500000
vt 0.375000 1.000000
vt 0.625000 1.000000
vt 0.125000 0.500000
vt 0.125000 0.750000
vt 0.375000 0.000000
vt 0.375000 0.250000
vt 0.625000 0.250000
vt 0.625000 0.000000
vt 0.125000 0.500000
vt 0.125000 0.750000
vt 0.375000 1.000000
vt 0.625000 1.000000
vn 0.0000 1.0000 0.0000
vn 0.0000 0.0000 1.0000
vn 0.0000 -1.0000 0.0000
vn 0.0000 0.0000 -1.0000
vn -1.0000 0.0000 0.0000
vn -0.5182 0.0000 -0.8552
vn -0.0457 0.0000 -0.9990
vn -0.0670 0.0000 0.9978
vn 0.5182 0.0000 0.8552
vn -0.9403 0.0000 0.3402
vn 1.0000 0.0000 0.0000
vn 0.5182 0.0000 -0.8552
vn 0.0457 0.0000 -0.9990
vn 0.0670 0.0000 0.9978
vn -0.5182 0.0000 0.8552
vn 0.9403 0.0000 0.3402
usemtl None
s off
f 42/69/18 44/70/18 48/71/18 46/72/18
f 75/73/19 76/74/19 42/75/19 41/76/19
f 74/77/18 44/70/18 42/69/18 76/78/18
f 43/79/20 73/80/20 75/81/20 41/82/20
f 43/83/21 44/84/21 74/85/21 73/86/21
f 48/87/22 47/88/22 51/89/22 52/90/22
f 43/79/20 41/82/20 45/91/20 47/92/20
f 44/84/21 43/83/21 47/88/21 48/87/21
f 41/76/19 42/75/19 46/93/19 45/94/19
f 50/95/19 52/96/19 56/97/19 54/98/19
f 45/94/22 46/93/22 50/99/22 49/100/22
f 46/72/22 48/71/22 52/96/22 50/95/22
f 47/92/22 45/91/22 49/101/22 51/102/22
f 54/98/18 56/97/18 60/103/18 58/104/18
f 51/102/19 49/101/19 53/105/19 55/106/19
f 52/90/19 51/89/19 55/107/19 56/108/19
f 49/100/19 50/99/19 54/109/19 53/110/19
f 60/111/23 59/112/23 63/113/23 64/114/23
f 55/106/20 53/105/20 57/115/20 59/116/20
f 56/108/24 55/107/24 59/112/24 60/111/24
f 53/110/25 54/109/25 58/117/25 57/118/25
f 62/119/19 64/120/19 68/121/19 66/122/19
f 57/118/26 58/117/26 62/123/26 61/124/26
f 58/104/18 60/103/18 64/120/18 62/119/18
f 59/116/20 57/115/20 61/125/20 63/126/20
f 65/127/27 66/128/27 68/129/27 67/130/27
f 63/126/19 61/125/19 65/131/19 67/132/19
f 64/114/19 63/113/19 67/130/19 68/129/19
f 61/124/19 62/123/19 66/133/19 65/134/19
f 70/135/18 78/136/18 80/137/18 72/138/18
f 75/73/19 69/139/19 70/140/19 76/74/19
f 74/77/18 76/78/18 70/135/18 72/138/18
f 71/141/20 69/142/20 75/81/20 73/80/20
f 71/143/21 73/86/21 74/85/21 72/144/21
f 80/145/28 84/146/28 83/147/28 79/148/28
f 71/141/20 79/149/20 77/150/20 69/142/20
f 72/144/21 80/145/21 79/148/21 71/143/21
f 69/139/19 77/151/19 78/152/19 70/140/19
f 82/153/19 86/154/19 88/155/19 84/156/19
f 77/151/28 81/157/28 82/158/28 78/152/28
f 78/136/28 82/153/28 84/156/28 80/137/28
f 79/149/28 83/159/28 81/160/28 77/150/28
f 86/154/18 90/161/18 92/162/18 88/155/18
f 83/159/19 87/163/19 85/164/19 81/160/19
f 84/146/19 88/165/19 87/166/19 83/147/19
f 81/157/19 85/167/19 86/168/19 82/158/19
f 92/169/29 96/170/29 95/171/29 91/172/29
f 87/163/20 91/173/20 89/174/20 85/164/20
f 88/165/30 92/169/30 91/172/30 87/166/30
f 85/167/31 89/175/31 90/176/31 86/168/31
f 94/177/19 98/178/19 100/179/19 96/180/19
f 89/175/32 93/181/32 94/182/32 90/176/32
f 90/161/18 94/177/18 96/180/18 92/162/18
f 91/173/20 95/183/20 93/184/20 89/174/20
f 97/185/33 99/186/33 100/187/33 98/188/33
f 95/183/19 99/189/19 97/190/19 93/184/19
f 96/170/19 100/187/19 99/186/19 95/171/19
f 93/181/19 97/191/19 98/192/19 94/182/19
o Cylinder
v 0.000000 0.214025 -10.407578
v 0.000000 0.214025 -4.397384
v 0.195090 0.209912 -10.407578
v 0.195090 0.209912 -4.397384
v 0.382683 0.197733 -10.407578
v 0.382683 0.197733 -4.397384
v 0.555570 0.177955 -10.407578
v 0.555570 0.177955 -4.397384
v 0.707107 0.151338 -10.407578
v 0.707107 0.151338 -4.397384
v 0.831470 0.118906 -10.407578
v 0.831470 0.118906 -4.397384
v 0.923880 0.081904 -10.407578
v 0.923880 0.081904 -4.397384
v 0.980785 0.041754 -10.407578
v 0.980785 0.041754 -4.397384
v 1.000000 0.000000 -10.407578
v 1.000000 -0.000000 -4.397384
v 0.980785 -0.041754 -10.407578
v 0.980785 -0.041754 -4.397384
v 0.923880 -0.081904 -10.407578
v 0.923880 -0.081904 -4.397384
v 0.831470 -0.118906 -10.407578
v 0.831470 -0.118906 -4.397384
v 0.707107 -0.151338 -10.407578
v 0.707107 -0.151338 -4.397384
v 0.555570 -0.177955 -10.407578
v 0.555570 -0.177955 -4.397384
v 0.382683 -0.197733 -10.407578
v 0.382683 -0.197733 -4.397384
v 0.195090 -0.209912 -10.407578
v 0.195090 -0.209912 -4.397384
v -0.000000 -0.214025 -10.407578
v -0.000000 -0.214025 -4.397384
v -0.195091 -0.209912 -10.407578
v -0.195091 -0.209912 -4.397384
v -0.382684 -0.197733 -10.407578
v -0.382684 -0.197733 -4.397384
v -0.555571 -0.177955 -10.407578
v -0.555571 -0.177955 -4.397384
v -0.707107 -0.151338 -10.407578
v -0.707107 -0.151338 -4.397384
v -0.831470 -0.118906 -10.407578
v -0.831470 -0.118906 -4.397384
v -0.923880 -0.081903 -10.407578
v -0.923880 -0.081904 -4.397384
v -0.980785 -0.041754 -10.407578
v -0.980785 -0.041754 -4.397384
v -1.000000 0.000000 -10.407578
v -1.000000 0.000000 -4.397384
v -0.980785 0.041755 -10.407578
v -0.980785 0.041754 -4.397384
v -0.923879 0.081904 -10.407578
v -0.923879 0.081904 -4.397384
v -0.831469 0.118906 -10.407578
v -0.831469 0.118906 -4.397384
v -0.707106 0.151339 -10.407578
v -0.707106 0.151338 -4.397384
v -0.555569 0.177955 -10.407578
v -0.555569 0.177955 -4.397384
v -0.382682 0.197733 -10.407578
v -0.382682 0.197733 -4.397384
v -0.195089 0.209912 -10.407578
v -0.195089 0.209912 -4.397384
vt 1.000000 0.500000
vt 1.000000 1.000000
vt 0.968750 1.000000
vt 0.968750 0.500000
vt 0.937500 1.000000
vt 0.937500 0.500000
vt 0.906250 1.000000
vt 0.906250 0.500000
vt 0.875000 1.000000
vt 0.875000 0.500000
vt 0.843750 1.000000
vt 0.843750 0.500000
vt 0.812500 1.000000
vt 0.812500 0.500000
vt 0.781250 1.000000
vt 0.781250 0.500000
vt 0.750000 1.000000
vt 0.750000 0.500000
vt 0.718750 1.000000
vt 0.718750 0.500000
vt 0.687500 1.000000
vt 0.687500 0.500000
vt 0.656250 1.000000
vt 0.656250 0.500000
vt 0.625000 1.000000
vt 0.625000 0.500000
vt 0.593750 1.000000
vt 0.593750 0.500000
vt 0.562500 1.000000
vt 0.562500 0.500000
vt 0.531250 1.000000
vt 0.531250 0.500000
vt 0.500000 1.000000
vt 0.500000 0.500000
vt 0.468750 1.000000
vt 0.468750 0.500000
vt 0.437500 1.000000
vt 0.437500 0.500000
vt 0.406250 1.000000
vt 0.406250 0.500000
vt 0.375000 1.000000
vt 0.375000 0.500000
vt 0.343750 1.000000
vt 0.343750 0.500000
vt 0.312500 1.000000
vt 0.312500 0.500000
vt 0.281250 1.000000
vt 0.281250 0.500000
vt 0.250000 1.000000
vt 0.250000 0.500000
vt 0.218750 1.000000
vt 0.218750 0.500000
vt 0.187500 1.000000
vt 0.187500 0.500000
vt 0.156250 1.000000
vt 0.156250 0.500000
vt 0.125000 1.000000
vt 0.125000 0.500000
vt 0.093750 1.000000
vt 0.093750 0.500000
vt 0.062500 1.000000
vt 0.062500 0.500000
vt 0.296822 0.485388
vt 0.250000 0.490000
vt 0.203179 0.485389
vt 0.158156 0.471731
vt 0.116663 0.449553
vt 0.080295 0.419706
vt 0.050447 0.383337
vt 0.028269 0.341844
vt 0.014612 0.296822
vt 0.010000 0.250000
vt 0.014611 0.203179
vt 0.028269 0.158156
vt 0.050447 0.116663
vt 0.080294 0.080294
vt 0.116663 0.050447
vt 0.158156 0.028269
vt 0.203178 0.014612
vt 0.250000 0.010000
vt 0.296822 0.014612
vt 0.341844 0.028269
vt 0.383337 0.050447
vt 0.419706 0.080294
vt 0.449553 0.116663
vt 0.471731 0.158156
vt 0.485388 0.203178
vt 0.490000 0.250000
vt 0.485388 0.296822
vt 0.471731 0.341844
vt 0.449553 0.383337
vt 0.419706 0.419706
vt 0.383337 0.449553
vt 0.341844 0.471731
vt 0.031250 1.000000
vt 0.031250 0.500000
vt 0.000000 1.000000
vt 0.000000 0.500000
vt 0.750000 0.490000
vt 0.796822 0.485388
vt 0.841844 0.471731
vt 0.883337 0.449553
vt 0.919706 0.419706
vt 0.949553 0.383337
vt 0.971731 0.341844
vt 0.985388 0.296822
vt 0.990000 0.250000
vt 0.985388 0.203178
vt 0.971731 0.158156
vt 0.949553 0.116663
vt 0.919706 0.080294
vt 0.883337 0.050447
vt 0.841844 0.028269
vt 0.796822 0.014612
vt 0.750000 0.010000
vt 0.703178 0.014612
vt 0.658156 0.028269
vt 0.616663 0.050447
vt 0.580294 0.080294
vt 0.550447 0.116663
vt 0.528269 0.158156
vt 0.514611 0.203179
vt 0.510000 0.250000
vt 0.514612 0.296822
vt 0.528269 0.341844
vt 0.550447 0.383337
vt 0.580295 0.419706
vt 0.616663 0.449553
vt 0.658156 0.471731
vt 0.703179 0.485389
vn 0.0211 0.9998 0.0000
vn 0.0648 0.9979 0.0000
vn 0.1137 0.9935 0.0000
vn 0.1730 0.9849 0.0000
vn 0.2523 0.9676 0.0000
vn 0.3717 0.9283 0.0000
vn 0.5765 0.8171 0.0000
vn 0.9084 0.4180 0.0000
vn 0.9084 -0.4180 -0.0000
vn 0.5765 -0.8171 -0.0000
vn 0.3717 -0.9283 -0.0000
vn 0.2523 -0.9676 -0.0000
vn 0.1730 -0.9849 -0.0000
vn 0.1137 -0.9935 -0.0000
vn 0.0648 -0.9979 -0.0000
vn 0.0211 -0.9998 -0.0000
vn -0.0211 -0.9998 -0.0000
vn -0.0648 -0.9979 -0.0000
vn -0.1137 -0.9935 -0.0000
vn -0.1730 -0.9849 -0.0000
vn -0.2524 -0.9676 -0.0000
vn -0.3717 -0.9283 -0.0000
vn -0.5765 -0.8171 -0.0000
vn -0.9084 -0.4180 -0.0000
vn -0.9084 0.4181 0.0000
vn -0.5765 0.8171 0.0000
vn -0.3717 0.9283 0.0000
vn -0.2523 0.9676 0.0000
vn -0.1730 0.9849 0.0000
vn -0.1137 0.9935 0.0000
vn 0.0000 0.0000 1.0000
vn -0.0648 0.9979 0.0000
vn -0.0211 0.9998 0.0000
vn -0.0000 0.0000 -1.0000
usemtl None
s off
f 101/193/34 102/194/34 104/195/34 103/196/34
f 103/196/35 104/195/35 106/197/35 105/198/35
f 105/198/36 106/197/36 108/199/36 107/200/36
f 107/200/37 108/199/37 110/201/37 109/202/37
f 109/202/38 110/201/38 112/203/38 111/204/38
f 111/204/39 112/203/39 114/205/39 113/206/39
f 113/206/40 114/205/40 116/207/40 115/208/40
f 115/208/41 116/207/41 118/209/41 117/210/41
f 117/210/42 118/209/42 120/211/42 119/212/42
f 119/212/43 120/211/43 122/213/43 121/214/43
f 121/214/44 122/213/44 124/215/44 123/216/44
f 123/216/45 124/215/45 126/217/45 125/218/45
f 125/218/46 126/217/46 128/219/46 127/220/46
f 127/220/47 128/219/47 130/221/47 129/222/47
f 129/222/48 130/221/48 132/223/48 131/224/48
f 131/224/49 132/223/49 134/225/49 133/226/49
f 133/226/50 134/225/50 136/227/50 135/228/50
f 135/228/51 136/227/51 138/229/51 137/230/51
f 137/230/52 138/229/52 140/231/52 139/232/52
f 139/232/53 140/231/53 142/233/53 141/234/53
f 141/234/54 142/233/54 144/235/54 143/236/54
f 143/236/55 144/235/55 146/237/55 145/238/55
f 145/238/56 146/237/56 148/239/56 147/240/56
f 147/240/57 148/239/57 150/241/57 149/242/57
f 149/242/58 150/241/58 152/243/58 151/244/58
f 151/244/59 152/243/59 154/245/59 153/246/59
f 153/246/60 154/245/60 156/247/60 155/248/60
f 155/248/61 156/247/61 158/249/61 157/250/61
f 157/250/62 158/249/62 160/251/62 159/252/62
f 159/252/63 160/251/63 162/253/63 161/254/63
f 104/255/64 102/256/64 164/257/64 162/258/64 160/259/64 158/260/64 156/261/64 154/262/64 152/263/64 150/264/64 148/265/64 146/266/64 144/267/64 142/268/64 140/269/64 138/270/64 136/271/64 134/272/64 132/273/64 130/274/64 128/275/64 126/276/64 124/277/64 122/278/64 120/279/64 118/280/64 116/281/64 114/282/64 112/283/64 110/284/64 108/285/64 106/286/64
f 161/254/65 162/253/65 164/287/65 163/288/65
f 163/288/66 164/287/66 102/289/66 101/290/66
f 101/291/67 103/292/67 105/293/67 107/294/67 109/295/67 111/296/67 113/297/67 115/298/67 117/299/67 119/300/67 121/301/67 123/302/67 125/303/67 127/304/67 129/305/67 131/306/67 133/307/67 135/308/67 137/309/67 139/310/67 141/311/67 143/312/67 145/313/67 147/314/67 149/315/67 151/316/67 153/317/67 155/318/67 157/319/67 159/320/67 161/321/67 163/322/67
o Cube.002
v 1.566543 -0.145386 -10.628482
v 1.566543 0.145386 -10.628482
v 1.566543 -0.145386 -11.554920
v 1.566543 0.145386 -11.554920
v -1.566543 -0.145386 -10.628482
v -1.566543 0.145386 -10.628482
v -1.566543 -0.145386 -11.554920
v -1.566543 0.145386 -11.554920
v 0.000000 -0.382086 -12.309073
v 0.000000 0.382086 -12.309073
v 0.000000 -0.382086 -9.874328
v 0.000000 0.382086 -9.874328
vt 0.375000 0.375000
vt 0.625000 0.375000
vt 0.625000 0.500000
vt 0.375000 0.500000
vt 0.625000 0.750000
vt 0.375000 0.750000
vt 0.250000 0.500000
vt 0.250000 0.750000
vt 0.750000 0.500000
vt 0.750000 0.750000
vt 0.625000 0.875000
vt 0.375000 0.875000
vt 0.375000 0.500000
vt 0.625000 0.500000
vt 0.375000 0.750000
vt 0.625000 0.750000
vn 0.4338 0.0000 -0.9010
vn 1.0000 0.0000 0.0000
vn 0.1494 -0.9888 0.0000
vn 0.1494 0.9888 0.0000
vn 0.4338 0.0000 0.9010
vn -0.4338 0.0000 -0.9010
vn -1.0000 0.0000 0.0000
vn -0.1494 -0.9888 0.0000
vn -0.1494 0.9888 0.0000
vn -0.4338 0.0000 0.9010
usemtl None
s off
f 173/323/68 174/324/68 168/325/68 167/326/68
f 167/326/69 168/325/69 166/327/69 165/328/69
f 173/329/70 167/326/70 165/328/70 175/330/70
f 168/325/71 174/331/71 176/332/71 166/327/71
f 165/328/72 166/327/72 176/333/72 175/334/72
f 173/323/73 171/335/73 172/336/73 174/324/73
f 171/335/74 169/337/74 170/338/74 172/336/74
f 173/329/75 175/330/75 169/337/75 171/335/75
f 172/336/76 170/338/76 176/332/76 174/331/76
f 169/337/77 175/334/77 176/333/77 170/338/77
